<?xml version="1.0" encoding="utf-8"?>
<!-- Generator: Adobe Illustrator 25.3.1, SVG Export Plug-In . SVG Version: 6.00 Build 0)  -->
<svg version="1.1" id="Layer_1" xmlns="http://www.w3.org/2000/svg" xmlns:xlink="http://www.w3.org/1999/xlink" x="0px" y="0px"
	 viewBox="0 0 512 512" style="enable-background:new 0 0 512 512;" xml:space="preserve">
<style type="text/css">
	.st0{fill:#010606;}
</style>
<g transform="translate(0,0)">
	<path class="st0" d="M57.6,30.1c9,28.5,9.7,57.4,11.4,84.6c2.2,34.6,6.1,66,28.3,93.2c1.8,2.3,8.9,6.6,19.3,9.4
		c10.4,2.8,23.9,4.5,38.5,4.5c25.2-0.2,53.7-5.8,76.9-18.8C159,175.6,109.3,130.3,97,71.9c37.8,47.9,71,85.1,142.5,106.4
		c1.5-12.6,4.3-24.4,6.2-35.1c3.2-18,3.6-31-4.6-40.6c-14.2-16.4-50-29.6-89.9-41.5C119.7,51.8,86,42.7,57.6,30.1L57.6,30.1z
		 M369.4,136.3c-34.3,15.2-74.2,36.9-112,44.6c-0.7,6.3-1.1,12.5-0.8,18.5c43.5-7.4,85.9-31.5,120.1-46.6c14.9-5.3,43-19.5,57.1-10
		c14.1,11.7,9.6,34.9,6.4,48.5c-3.8,16.4-10.3,35.2-17.3,53c4.6,6.1,8.5,14.2,11,20.6c9.2-22.6,18.6-47.6,23.8-69.5
		c4.8-25.4,8.3-51.6-13.6-67.4C420.5,113.8,389.4,127.6,369.4,136.3L369.4,136.3z M350.4,257.2c-34.7,26.8-58.4,55-89.6,73
		c-31.1,18-69.6,24-128.7,6.4c-35.3-10.5-56.6-6.9-67.9,1.5c-11.3,8.4-15.4,23.2-12.7,41.8c5.3,37.3,39.8,83.9,82.2,92
		c68.2,12.9,125.8,13.7,171.9,0.2s80.9-40.7,105.4-85.9c15.4-28.5,18.4-79,7.3-111.5C406.8,239.8,378.3,236.5,350.4,257.2
		L350.4,257.2z"/>
</g>
</svg>
