<?xml version="1.0" encoding="utf-8"?>
<!-- Generator: Adobe Illustrator 25.3.1, SVG Export Plug-In . SVG Version: 6.00 Build 0)  -->
<svg version="1.1" id="Layer_1" xmlns="http://www.w3.org/2000/svg" xmlns:xlink="http://www.w3.org/1999/xlink" x="0px" y="0px"
	 viewBox="0 0 600 600" style="enable-background:new 0 0 600 600;" xml:space="preserve">
<style type="text/css">
	.st0{fill:#268A00;}
	.st1{fill:#B89A42;}
</style>
<path class="st0" d="M207.6,73.4c-28.9,0-61.7,16.4-86,55.2c70.8-24.4,69.9,19.1,130,37c12.8,18.2,21.5,41.1,27.4,72.2
	c1.1,9.1,1.4,18.9,1.5,29.1c0.2,23.5-1.7,48.7-3.1,69.7l0,0c-0.4,7,3,18,9.3,29.4c2.7,5,6,10,9.6,14.9c2.9-59.3,1-113.1,11.3-161.4
	c7.1-19.4,16.7-35.7,28.8-49.2c67.6-14.8,59.1-58.5,141-33.1c-32.6-39-72.2-55.1-104.4-54.5c-43.9,0.8-74,32.6-53.7,79.7
	c-11.4,13.6-20.7,29.5-27.9,47.6c-5.5-19.2-12.6-35.5-21.6-49.7C284.3,108.8,250.2,73.4,207.6,73.4L207.6,73.4z"/>
<path class="st1" d="M243.8,250.6l-75.5,1.8l-69.4,95l72.1,67.2l90-8.7l-89,36.3l-57.4-54.9l37.7,84.2l110.4,28.8l-99.4-4.2
	l5.6,12.4l167,47.5l127.8-70.8l0,0L432,440.1l-94.8,42.4l99.1-72.1l28.1,41.9l1.8-79.2l-66.5-78.3L344,282.2l-24.4,36.4l7,26.2
	l-9.4,14.8c-0.5,15.7-1.2,32-2.4,48.8l23.2,32.5l-36.1,41.7l15.5,31.9L280.3,479l34-39.2l-11.1-15.6l-4.9-5.3
	c-10-10.8-19.7-23.6-27-36.7c-4.9-8.8-8.8-17.8-10.6-26.7L242.6,319l15.3-40h0.6L243.8,250.6L243.8,250.6z"/>
</svg>
