<?xml version="1.0" encoding="utf-8"?>
<!-- Generator: Adobe Illustrator 25.3.1, SVG Export Plug-In . SVG Version: 6.00 Build 0)  -->
<svg version="1.1" id="Layer_1" xmlns="http://www.w3.org/2000/svg" xmlns:xlink="http://www.w3.org/1999/xlink" x="0px" y="0px"
	 viewBox="0 0 512 512" style="enable-background:new 0 0 512 512;" xml:space="preserve">
<style type="text/css">
	.st0{fill:#010606;}
</style>
<g transform="translate(0,0)">
	<path class="st0" d="M443.8,18.2C374.1,34.8,283.7,95.6,288,174.5l-0.6,0.3c-12.3-33.5-29.6-48.4-62.2-63.2
		c-43-18.7-89.7,0-157-37.3c44.8,56,44.8,130.9,110.2,149.5c44.5,14.8,91.3,6.1,109.7-7.5c21.3,72.8,18.2,144.9-14.6,217.5
		c-1.3-35-11.2-77.8-24.9-108.2c-5.6,37.4-1.9,93.4-39.3,130.8c1.9-18.7-13.1-56-28-74.7c0,37.3,3.7,74.7-20.6,112.1h241.1
		c5.2-17.5,7.2-35,9-37.2c-7.5,4.7-14.7,11.1-28.1,13.6c3.7,0,2.3-32.5,0.4-51.2c-14.9,37.4-37.3,56.1-61.6,56.1
		c26.1-37.4,22.4-56.1,18.7-93.4c-13,32.4-24.6,50.8-53.2,67.3c37.7-78.8,41.9-158.4,19.3-237.2c25.1,11.4,53.4,7.2,85.2-25.4
		C428.5,148.5,400.9,74.2,443.8,18.2L443.8,18.2z M410.8,456.6c0.2,0,0.3-0.1,0.4-0.2C411.1,456.4,411,456.5,410.8,456.6z"/>
</g>
</svg>
