<?xml version="1.0" encoding="utf-8"?>
<!-- Generator: Adobe Illustrator 25.3.1, SVG Export Plug-In . SVG Version: 6.00 Build 0)  -->
<svg version="1.1" id="Layer_1" xmlns="http://www.w3.org/2000/svg" xmlns:xlink="http://www.w3.org/1999/xlink" x="0px" y="0px"
	 viewBox="0 0 600 600" style="enable-background:new 0 0 600 600;" xml:space="preserve">
<style type="text/css">
	.st0{fill:#268A00;}
	.st1{fill:#B75300;}
</style>
<path class="st0" d="M103.3,69.8c9,28.5,9.7,57.4,11.4,84.6c2.2,34.6,6.1,66,28.3,93.2c1.8,2.3,8.9,6.6,19.3,9.4
	c10.4,2.8,23.9,4.5,38.5,4.5c25.2-0.2,53.7-5.8,76.9-18.8c-73-27.4-122.7-72.7-135-131.1c37.8,47.9,71,85.1,142.5,106.4
	c1.5-12.6,4.3-24.4,6.2-35.1c3.2-18,3.6-31-4.6-40.6c-14.2-16.4-50-29.6-89.9-41.5C165.4,91.5,131.7,82.4,103.3,69.8L103.3,69.8z"/>
<path class="st0" d="M415.1,176c-34.3,15.2-74.2,36.9-112,44.6c-0.7,6.3-1.1,12.5-0.8,18.5c43.5-7.4,85.9-31.5,120.1-46.6
	c14.9-5.3,43-19.5,57.1-10c14.1,11.7,9.6,34.9,6.4,48.5c-3.8,16.4-10.3,35.2-17.3,53c4.6,6.1,8.5,14.2,11,20.6
	c9.2-22.6,18.6-47.6,23.8-69.5c4.8-25.4,8.3-51.6-13.6-67.4C466.2,153.5,435.1,167.3,415.1,176L415.1,176z"/>
<path class="st1" d="M400.8,311.3c-34.7,26.8-58.4,55-89.6,73c-31.1,18-69.6,24-128.7,6.4c-35.3-10.5-56.6-6.9-67.9,1.5
	s-15.4,23.2-12.7,41.8c5.3,37.3,39.8,83.9,82.2,92c68.2,12.9,125.8,13.7,171.9,0.2s80.9-40.7,105.4-85.9
	c15.4-28.5,18.4-79,7.3-111.5C457.2,293.9,428.7,290.6,400.8,311.3L400.8,311.3z"/>
</svg>
